<svg width="640" height="360" viewBox="0 0 640 360" fill="none" xmlns="http://www.w3.org/2000/svg">
  <rect width="640" height="360" rx="24" fill="#0B1324"/>
  <rect x="72" y="76" width="180" height="208" rx="18" fill="#111827" stroke="#1F2937" stroke-width="2"/>
  <rect x="112" y="110" width="100" height="12" rx="6" fill="#1F2937"/>
  <rect x="112" y="134" width="80" height="10" rx="5" fill="#1F2937"/>
  <rect x="112" y="156" width="90" height="10" rx="5" fill="#1F2937"/>
  <rect x="112" y="206" width="100" height="40" rx="12" fill="#38D9A9"/>
  <rect x="280" y="110" width="288" height="36" rx="18" fill="#1F2937"/>
  <rect x="280" y="162" width="288" height="36" rx="18" fill="#1F2937"/>
  <rect x="280" y="214" width="288" height="36" rx="18" fill="#1F2937"/>
  <circle cx="280" cy="128" r="10" fill="#69DB7C"/>
  <circle cx="568" cy="128" r="10" fill="#69DB7C"/>
  <circle cx="280" cy="180" r="10" fill="#5C7CFA"/>
  <circle cx="568" cy="180" r="10" fill="#5C7CFA"/>
  <circle cx="280" cy="232" r="10" fill="#FAB005"/>
  <circle cx="568" cy="232" r="10" fill="#FAB005"/>
</svg>
